<?xml version="1.0" encoding="UTF-8" standalone="no"?>
<svg xmlns:rdf="http://www.w3.org/1999/02/22-rdf-syntax-ns#" xmlns="http://www.w3.org/2000/svg" version="1.1" xmlns:cc="http://creativecommons.org/ns#" xmlns:dc="http://purl.org/dc/elements/1.1/" viewBox="0 0 256 256">
 <defs>
  <style>.cls-1 {
        font-size: 50px;
        text-anchor: middle;
        fill: #393736;
        font-family: &quot;Open Sans&quot;;
        font-weight: 800;
      }</style>
 </defs>
 <g fill="#393736">
  <path style="" d="m39.563 147.92-1.8971-7.2193h-12.515l-1.9498 7.2193h-11.435l12.568-38.679h13.885l12.726 38.679h-11.382zm-4.0576-15.756-1.6599-6.3235q-.57966-2.1078-1.4228-5.454-.81679-3.3462-1.0803-4.7953-.23713 1.3438-.94853 4.4265-.68505 3.0827-3.0827 12.146h8.1942z"/>
  <path style="" d="m70.601 125.37h16.626v20.762q-6.7714 2.3186-14.887 2.3186-8.9056 0-13.78-5.1642-4.848-5.1642-4.848-14.729 0-9.3272 5.3223-14.518 5.3223-5.1906 14.913-5.1906 3.636 0 6.8505.68505 3.2408.68505 5.6385 1.739l-3.2935 8.1679q-4.163-2.0551-9.1427-2.0551-4.5582 0-7.0613 2.9773-2.4767 2.951-2.4767 8.4577 0 5.4013 2.2396 8.2469 2.2659 2.8192 6.5079 2.8192 2.3186 0 4.2684-.44792v-6.0337h-6.8768v-8.0361z"/>
  <path style="" d="m117.95 147.92h-22.87v-38.521h22.87v8.3523h-12.463v6.06h11.54v8.3523h-11.54v7.272h12.463v8.484z"/>
  <path style="" d="m161.37 147.92h-13.648l-14.07-27.138h-.23713q.50061 6.4026.50061 9.7751v17.363h-9.2218v-38.521h13.596l14.017 26.77h.15809q-.36888-5.8229-.36888-9.3535v-17.416h9.2745v38.521z"/>
  <path style="" d="m202.39 127.85q0 9.6434-5.3223 14.86-5.2959 5.2169-14.913 5.2169h-12.463v-38.521h13.332q9.2745 0 14.307 4.7426 5.0588 4.7426 5.0588 13.701zm-10.803.36887q0-5.2959-2.1078-7.8517-2.0815-2.5558-6.3499-2.5558h-3.03v21.579h2.3186q4.7426 0 6.9559-2.7402 2.2132-2.7665 2.2132-8.4314z"/>
  <path style="" d="m232.85 147.92-1.897-7.2193h-12.515l-1.9498 7.2193h-11.435l12.568-38.679h13.885l12.726 38.679h-11.382zm-4.0576-15.756-1.6599-6.3235q-.57966-2.1078-1.4228-5.454-.81679-3.3462-1.0803-4.7953-.23713 1.3438-.94853 4.4265-.68505 3.0827-3.0827 12.146h8.1942z"/>
 </g>
 <g>
  <rect transform="scale(1,-1)" height="19.187" width="232.5" y="-30.65" x="11.751" fill="#ef3a3a"/>
  <rect transform="scale(1,-1)" height="19.187" width="232.5" y="-62.346" x="11.751" fill="#0cc1e3"/>
  <g fill="#03c35a">
   <rect transform="scale(1,-1)" height="19.187" width="232.5" y="-94.042" x="11.751"/>
   <rect transform="scale(1,-1)" height="19.187" width="232.5" y="-181.23" x="11.751"/>
   <rect transform="scale(1,-1)" height="19.187" width="232.5" y="-212.92" x="11.751"/>
   <rect transform="scale(1,-1)" height="19.187" width="232.5" y="-244.62" x="11.751"/>
  </g>
 </g>
</svg>
